<svg width="100%" height="100%" viewBox="0 0 48 48">
<path fill-rule="evenodd" clip-rule="evenodd" d="M15.4142 12.5858C14.6332 11.8047 13.3668 11.8047 12.5858 12.5858C11.8047 13.3668 11.8047 14.6332 12.5858 15.4142L21.1716 24L12.5858 32.5858C11.8047 33.3668 11.8047 34.6332 12.5858 35.4142C13.3668 36.1953 14.6332 36.1953 15.4142 35.4142L24 26.8284L32.5858 35.4142C33.3668 36.1953 34.6332 36.1953 35.4142 35.4142C36.1953 34.6332 36.1953 33.3668 35.4142 32.5858L26.8284 24L35.4142 15.4142C36.1953 14.6332 36.1953 13.3668 35.4142 12.5858C34.6332 11.8047 33.3668 11.8047 32.5858 12.5858L24 21.1716L15.4142 12.5858Z"/>
</svg>
