<svg width="100%" height="100%" viewBox="0 0 16 16" fill="none" xmlns="http://www.w3.org/2000/svg">
  <path fill-rule="evenodd" clip-rule="evenodd" d="M7.00008 2.0013C4.23866 2.0013 2.00008 4.23988 2.00008 7.0013C2.00008 9.76273 4.23866 12.0013 7.00008 12.0013C9.76151 12.0013 12.0001 9.76273 12.0001 7.0013C12.0001 4.23988 9.76151 2.0013 7.00008 2.0013ZM0.666748 7.0013C0.666748 3.5035 3.50228 0.667969 7.00008 0.667969C10.4979 0.667969 13.3334 3.5035 13.3334 7.0013C13.3334 10.4991 10.4979 13.3346 7.00008 13.3346C3.50228 13.3346 0.666748 10.4991 0.666748 7.0013Z" fill="black" fill-opacity="0.42"/>
  <path fill-rule="evenodd" clip-rule="evenodd" d="M4.64302 4.30834C5.2455 3.70586 6.07975 3.33203 7.00004 3.33203C7.92033 3.33203 8.75458 3.70586 9.35706 4.30834C9.61741 4.56869 9.61741 4.9908 9.35706 5.25115C9.09671 5.5115 8.6746 5.5115 8.41425 5.25115C8.05159 4.88849 7.55251 4.66536 7.00004 4.66536C6.44757 4.66536 5.94848 4.88849 5.58583 5.25115C5.32548 5.5115 4.90337 5.5115 4.64302 5.25115C4.38267 4.9908 4.38267 4.56869 4.64302 4.30834Z" fill="black" fill-opacity="0.42"/>
  <path fill-rule="evenodd" clip-rule="evenodd" d="M10.6026 10.6042C10.8629 10.3439 11.285 10.3439 11.5454 10.6042L14.3738 13.4326C14.6342 13.693 14.6342 14.1151 14.3738 14.3755C14.1135 14.6358 13.6913 14.6358 13.431 14.3755L10.6026 11.547C10.3422 11.2867 10.3422 10.8646 10.6026 10.6042Z" fill="black" fill-opacity="0.42"/>
</svg>
