<svg width="20" height="20" viewBox="0 0 20 20" fill="none" xmlns="http://www.w3.org/2000/svg">
  <mask id="mask0" mask-type="alpha" maskUnits="userSpaceOnUse" x="0" y="0" width="20" height="20">
  <rect width="20" height="20" fill="#C4C4C4"/>
  </mask>
  <g mask="url(#mask0)">
  <path opacity="0.5" d="M17.4132 10C17.4132 8.94721 18.0744 8.05521 19 7.7C18.7824 6.84354 18.4429 6.02277 17.992 5.26281C17.5367 5.4673 17.0299 5.52849 16.539 5.43828C16.048 5.34808 15.5961 5.11073 15.2432 4.75773C14.8903 4.40473 14.6531 3.95277 14.563 3.46182C14.4729 2.97086 14.5342 2.46412 14.7388 2.00882C13.9783 1.558 13.1572 1.21829 12.3004 1C12.1222 1.46598 11.8071 1.86704 11.3964 2.15031C10.9857 2.43358 10.4989 2.58577 10 2.58682C9.50107 2.58619 9.01408 2.43416 8.60341 2.15082C8.19274 1.86749 7.87772 1.4662 7.7 1C6.8435 1.21786 6.02272 1.5576 5.26281 2.00882C5.46676 2.46412 5.52769 2.9706 5.43756 3.46128C5.34742 3.95196 5.11046 4.40372 4.75802 4.75681C4.40479 5.10876 3.95326 5.34548 3.46288 5.43581C2.97249 5.52613 2.46625 5.46582 2.01081 5.26281C1.55813 6.02222 1.21767 6.84312 1.00002 7.7C1.46593 7.87815 1.86694 8.19328 2.1502 8.60385C2.43346 9.01443 2.58569 9.50119 2.58682 10C2.58682 11.0528 1.92562 11.9448 1 12.3C1.21786 13.1565 1.5576 13.9773 2.00882 14.7372C2.46412 14.5331 2.97069 14.4722 3.46138 14.5626C3.95207 14.653 4.40371 14.8904 4.75641 15.2433C5.1091 15.5962 5.34621 16.048 5.43629 16.5387C5.52637 17.0295 5.46517 17.536 5.2608 17.9912C6.02156 18.4422 6.84296 18.7819 7.7 19C7.87818 18.534 8.19337 18.133 8.60402 17.8497C9.01468 17.5664 9.50154 17.4142 10.0004 17.4132C11.0532 17.4132 11.9452 18.0744 12.3004 19C13.1569 18.7824 13.9776 18.4429 14.7376 17.992C14.5334 17.5366 14.4723 17.0298 14.5624 16.5389C14.6526 16.048 14.8897 15.596 15.2424 15.2428C15.5957 14.8909 16.0472 14.6543 16.5376 14.564C17.028 14.4738 17.5342 14.5342 17.9896 14.7372C18.4421 13.9778 18.7825 13.1569 19 12.3C18.5337 12.1223 18.1324 11.8072 17.8491 11.3964C17.5657 10.9857 17.4137 10.4986 17.4132 9.9996V10ZM10.1948 12.7392C9.86077 12.7391 9.53004 12.6732 9.22148 12.5452C8.91293 12.4173 8.6326 12.2298 8.3965 11.9935C8.1604 11.7572 7.97315 11.4767 7.84544 11.1681C7.71773 10.8594 7.65207 10.5286 7.6522 10.1946C7.65234 9.86057 7.71826 9.52984 7.84621 9.22128C7.97416 8.91273 8.16163 8.6324 8.39792 8.3963C8.63421 8.1602 8.91469 7.97295 9.22334 7.84524C9.532 7.71754 9.86278 7.65188 10.1968 7.65201C10.8714 7.65227 11.5183 7.92052 11.9951 8.39772C12.4719 8.87493 12.7397 9.52201 12.7394 10.1966C12.7391 10.8712 12.4709 11.5181 11.9937 11.9949C11.5165 12.4717 10.8694 12.7395 10.1948 12.7392Z" fill="#999999"/>
  <path d="M14.1487 9.80001C14.1487 9.18242 14.5367 8.65881 15.0795 8.45041C14.9519 7.94804 14.7528 7.4666 14.4883 7.02082C14.2212 7.14077 13.9239 7.17667 13.6359 7.12377C13.3479 7.07086 13.0828 6.93164 12.8757 6.72459C12.6687 6.51753 12.5295 6.25241 12.4766 5.96441C12.4237 5.67641 12.4596 5.37913 12.5795 5.112C12.1334 4.84748 11.6517 4.64814 11.1491 4.52002C11.0446 4.79338 10.8597 5.02865 10.6187 5.19481C10.3778 5.36097 10.0922 5.45022 9.79952 5.4508C9.50679 5.4505 9.22104 5.36135 8.98006 5.19516C8.73909 5.02896 8.55422 4.79354 8.44992 4.52002C7.94751 4.64791 7.46607 4.84728 7.02033 5.11202C7.13995 5.37909 7.17569 5.67618 7.12284 5.96401C7.06998 6.25184 6.93102 6.51684 6.72431 6.72399C6.51707 6.93054 6.25212 7.06945 5.96436 7.12243C5.67661 7.17542 5.37956 7.13998 5.11234 7.0208C4.84685 7.46626 4.64719 7.94778 4.51953 8.45039C4.79289 8.55493 5.02816 8.73985 5.19432 8.98078C5.36048 9.22171 5.44973 9.50734 5.45031 9.80001C5.45031 10.4176 5.06233 10.9412 4.51953 11.1496C4.64742 11.652 4.84679 12.1335 5.11153 12.5792C5.37862 12.4595 5.67578 12.4238 5.96363 12.4768C6.25147 12.5299 6.5164 12.6691 6.72332 12.8761C6.93023 13.0831 7.06936 13.3481 7.12226 13.636C7.17515 13.9238 7.13933 14.221 7.01952 14.488C7.46564 14.7526 7.94732 14.9519 8.44992 15.08C8.55446 14.8066 8.73938 14.5714 8.9803 14.4052C9.22123 14.239 9.50685 14.1498 9.79952 14.1492C10.4171 14.1492 10.9407 14.5372 11.1491 15.08C11.6515 14.952 12.1331 14.7532 12.5787 14.4888C12.4589 14.2216 12.4231 13.9244 12.4759 13.6364C12.5288 13.3484 12.6678 13.0832 12.8747 12.876C13.082 12.6695 13.3469 12.5306 13.6347 12.4776C13.9224 12.4246 14.2195 12.46 14.4867 12.5792C14.7522 12.1337 14.9518 11.6522 15.0795 11.1496C14.806 11.0453 14.5706 10.8605 14.4044 10.6195C14.2382 10.3785 14.149 10.0927 14.1487 9.80001ZM9.91393 11.4068C9.51822 11.4067 9.13877 11.2494 8.85904 10.9695C8.57931 10.6897 8.42222 10.3101 8.42232 9.91441C8.42243 9.51871 8.57972 9.13926 8.8596 8.85953C9.13948 8.5798 9.51901 8.42271 9.91472 8.42281C10.3104 8.42292 10.6899 8.58021 10.9696 8.86009C11.2493 9.13996 11.4064 9.5195 11.4063 9.9152C11.4062 10.3109 11.2489 10.6904 10.969 10.9701C10.6892 11.2498 10.3096 11.4069 9.91393 11.4068Z" fill="#333333"/>
  </g>
</svg>
