<svg width="20" height="20" viewBox="0 0 20 20" fill="none" xmlns="http://www.w3.org/2000/svg">
  <mask id="mask0" mask-type="alpha" maskUnits="userSpaceOnUse" x="0" y="0" width="20" height="20">
  <path d="M0 0H20V20H0V0Z" fill="#C4C4C4"/>
  </mask>
  <g mask="url(#mask0)">
  <path opacity="0.5" fill-rule="evenodd" clip-rule="evenodd" d="M1.66797 5.43853C1.66797 4.21123 2.66289 3.21631 3.89019 3.21631H16.0538C17.2811 3.21631 18.276 4.21123 18.276 5.43853V6.72485V6.72521V16.6665C18.276 17.8938 17.2811 18.8887 16.0538 18.8887H3.89019C2.66289 18.8887 1.66797 17.8938 1.66797 16.6665V6.72521V6.72485V5.43853ZM4.6 6.69995C4.26863 6.69995 4 6.96858 4 7.29995V15.9C4 16.2314 4.26863 16.5 4.6 16.5H15.4C15.7314 16.5 16 16.2314 16 15.9V7.29995C16 6.96858 15.7314 6.69995 15.4 6.69995H4.6Z" fill="#57F5ED"/>
  <path opacity="0.5" d="M4.9546 1.11108C5.26476 1.11108 5.56221 1.23429 5.78152 1.45361C6.00084 1.67292 6.12405 1.97037 6.12405 2.28053V3.21636H3.78516V2.28053C3.78516 1.97037 3.90837 1.67292 4.12768 1.45361C4.34699 1.23429 4.64445 1.11108 4.9546 1.11108ZM10.088 1.11108C10.2415 1.11108 10.3936 1.14133 10.5355 1.2001C10.6774 1.25887 10.8063 1.34501 10.9149 1.4536C11.0235 1.56219 11.1096 1.69111 11.1684 1.833C11.2272 1.97488 11.2574 2.12695 11.2574 2.28053V3.21636H8.91855V2.28053C8.91855 1.97042 9.04172 1.67301 9.26097 1.45371C9.48023 1.2344 9.77787 1.11116 10.088 1.11108ZM15.0202 1.11108C15.3304 1.11108 15.6278 1.23429 15.8471 1.45361C16.0665 1.67292 16.1897 1.97037 16.1897 2.28053V3.21636H13.8508V2.28053C13.8508 2.12695 13.881 1.97489 13.9398 1.833C13.9986 1.69112 14.0847 1.5622 14.1933 1.45361C14.3019 1.34501 14.4308 1.25887 14.5727 1.2001C14.7146 1.14133 14.8667 1.11108 15.0202 1.11108Z" fill="#57F5ED"/>
  <path d="M3.78516 3.21631H6.12405V4.38577C6.12405 4.69593 6.00084 4.99338 5.78152 5.2127C5.56221 5.43201 5.26476 5.55522 4.9546 5.55522C4.64445 5.55522 4.34699 5.43201 4.12768 5.2127C3.90837 4.99338 3.78516 4.69593 3.78516 4.38577V3.21631ZM8.91869 3.21631H11.2579V4.38577C11.2579 4.69593 11.1347 4.99338 10.9153 5.2127C10.696 5.43201 10.3986 5.55522 10.0884 5.55522C9.77826 5.55522 9.48081 5.43201 9.2615 5.2127C9.04218 4.99338 8.91897 4.69593 8.91897 4.38577L8.91869 3.21631ZM13.8546 3.21631H16.1935V4.38577C16.1935 4.53935 16.1633 4.69142 16.1045 4.8333C16.0457 4.97519 15.9596 5.1041 15.851 5.2127C15.7424 5.32129 15.6135 5.40743 15.4716 5.4662C15.3297 5.52497 15.1776 5.55522 15.0241 5.55522C14.8705 5.55522 14.7184 5.52497 14.5765 5.4662C14.4347 5.40743 14.3057 5.32129 14.1971 5.2127C14.0886 5.1041 14.0024 4.97519 13.9436 4.8333C13.8849 4.69142 13.8546 4.53935 13.8546 4.38577L13.8546 3.21631Z" fill="#57F5ED"/>
  <path d="M9.78461 14.2516C9.34822 14.6678 8.65944 14.66 8.23265 14.2339L6.11307 12.1177C5.70127 11.7066 5.701 11.0394 6.11246 10.6279C6.52334 10.217 7.18938 10.2166 7.60077 10.627L9 12.0228L12.6638 8.58474C13.0798 8.19434 13.7306 8.20471 14.134 8.60817C14.5535 9.02772 14.5454 9.71031 14.1161 10.1198L9.78461 14.2516Z" fill="#338AFF"/>
  </g>
  </svg>
