<svg width="20" height="20" viewBox="0 0 20 20" fill="none" xmlns="http://www.w3.org/2000/svg">
  <mask id="mask0" mask-type="alpha" maskUnits="userSpaceOnUse" x="0" y="0" width="20" height="20">
  <rect width="20" height="20" fill="#C4C4C4"/>
  </mask>
  <g mask="url(#mask0)">
  <path fill-rule="evenodd" clip-rule="evenodd" d="M3.29581 2.38647C2.79373 2.38647 2.38672 2.79349 2.38672 3.29556V5.34102C2.38672 5.8431 2.79373 6.25011 3.29581 6.25011H8.18217C8.68425 6.25011 9.09126 5.8431 9.09126 5.34102V3.29557C9.09126 2.79349 8.68425 2.38647 8.18217 2.38647H3.29581ZM11.8173 13.75C11.3152 13.75 10.9082 14.157 10.9082 14.6591V16.7045C10.9082 17.2066 11.3152 17.6136 11.8173 17.6136H16.7037C17.2057 17.6136 17.6127 17.2066 17.6127 16.7045V14.6591C17.6127 14.157 17.2057 13.75 16.7037 13.75H11.8173Z" fill="#333333"/>
  <path opacity="0.5" fill-rule="evenodd" clip-rule="evenodd" d="M11.8173 2.38647C11.3152 2.38647 10.9082 2.79349 10.9082 3.29557V11.0228C10.9082 11.5249 11.3152 11.9319 11.8173 11.9319H16.7037C17.2057 11.9319 17.6127 11.5249 17.6127 11.0228V3.29557C17.6127 2.79349 17.2057 2.38647 16.7037 2.38647H11.8173ZM3.29581 8.06812C2.79373 8.06812 2.38672 8.47513 2.38672 8.97721V16.7045C2.38672 17.2066 2.79373 17.6136 3.29581 17.6136H8.18217C8.68425 17.6136 9.09126 17.2066 9.09126 16.7045V8.97721C9.09126 8.47513 8.68425 8.06812 8.18217 8.06812H3.29581Z" fill="#999999"/>
  </g>
  </svg>
