<svg width="20" height="20" viewBox="0 0 20 20" fill="none" xmlns="http://www.w3.org/2000/svg">
  <path opacity="0.5" d="M1.5 15.5C1.5 17.1569 2.84315 18.5 4.5 18.5H15.5C17.1569 18.5 18.5 17.1569 18.5 15.5V4.5C18.5 2.84315 17.1569 1.5 15.5 1.5H4.5C2.84315 1.5 1.5 2.84315 1.5 4.5V15.5Z" fill="#999999"/>
  <path d="M11.1896 13.611H14.3645M14.9994 15L14.3645 13.611L14.9994 15ZM10.5547 15L11.1896 13.611L10.5547 15ZM11.1896 13.611L12.7771 9.99963L14.3645 13.611H11.1896Z" stroke="#333333" stroke-width="1.44771" stroke-linecap="round" stroke-linejoin="round"/>
  <path d="M7.77734 4.99927L8.05514 5.83265" stroke="#333333" stroke-width="1.44771" stroke-linecap="round" stroke-linejoin="round"/>
  <path d="M5 6.38818H11.1115" stroke="#333333" stroke-width="1.44771" stroke-linecap="round" stroke-linejoin="round"/>
  <path d="M6.11328 7.77734C6.11328 7.77734 6.6104 9.51659 7.85317 10.4828C9.09592 11.4491 11.1136 12.2221 11.1136 12.2221" stroke="#333333" stroke-width="1.44771" stroke-linecap="round" stroke-linejoin="round"/>
  <path d="M10.0003 6.38818C10.0003 6.38818 9.5032 8.67094 8.26043 9.93913C7.01768 11.2073 5 12.2219 5 12.2219" stroke="#333333" stroke-width="1.44771" stroke-linecap="round" stroke-linejoin="round"/>
  </svg>
