<svg width="20" height="20" viewBox="0 0 20 20" fill="none" xmlns="http://www.w3.org/2000/svg">
  <mask id="mask0" mask-type="alpha" maskUnits="userSpaceOnUse" x="0" y="0" width="20" height="20">
  <path d="M0 0H20V20H0V0Z" fill="#C4C4C4"/>
  </mask>
  <g mask="url(#mask0)">
  </g>
  <g clip-path="url(#clip0)">
  <path opacity="0.5" d="M8.72461 0.792324C8.72461 0.681867 8.81415 0.592323 8.92461 0.592323H11.1562C11.2666 0.592323 11.3562 0.681866 11.3562 0.792323V19.2736C11.3562 19.3841 11.2666 19.4736 11.1562 19.4736H8.92461C8.81415 19.4736 8.72461 19.3841 8.72461 19.2736V0.792324Z" fill="#57F5ED"/>
  <path fill-rule="evenodd" clip-rule="evenodd" d="M11.0032 10.0123L11.0032 10.0147L16.8431 10.0148L14.7452 12.1127L16.8431 14.2106L11.0032 14.2106L8.90524 14.2106H4.21113L2.46676 12.4662C2.2715 12.2709 2.2715 11.9544 2.46676 11.7591L4.21113 10.0147H8.90524L8.90527 10.0123H11.0032ZM11.3561 7.8947L15.7905 7.89473L17.8884 5.79681L15.7905 3.69889L11.0269 3.69885L8.92899 3.69886L3.15893 3.69885L5.25685 5.79677L3.15893 7.89469H8.72453V7.89465H11.3561V7.8947Z" fill="#338AFF"/>
  </g>
  <defs>
  <clipPath id="clip0">
  <rect width="18.8813" height="18.8813" fill="white" transform="translate(0.513672 0.606567)"/>
  </clipPath>
  </defs>
  </svg>
