<svg width="20" height="20" viewBox="0 0 20 20" fill="none" xmlns="http://www.w3.org/2000/svg">
  <path d="M20 0H0V20H20V0Z" fill="white" fill-opacity="0.01"/>
  <path opacity="0.5" fill-rule="evenodd" clip-rule="evenodd" d="M0.916016 9.99996C0.916016 4.98337 4.98276 0.916626 9.99935 0.916626C15.0159 0.916626 19.0827 4.98337 19.0827 9.99996C19.0827 10.8741 18.5818 11.4434 17.9804 11.7918C17.4216 12.1156 16.707 12.2951 16.0632 12.4345C15.8605 12.4784 15.6632 12.5187 15.4712 12.5579C15.0084 12.6523 14.576 12.7406 14.1698 12.8587C13.5891 13.0276 13.2384 13.2135 13.0607 13.414C12.8082 13.6991 12.6515 14.0999 12.5507 14.6301C12.4788 15.0079 12.4451 15.3816 12.4088 15.7823C12.3923 15.9656 12.3752 16.1546 12.3537 16.3522C12.2924 16.9167 12.1914 17.5909 11.8603 18.1247C11.6834 18.4097 11.4383 18.6612 11.105 18.8357C10.7758 19.008 10.4027 19.0833 9.99935 19.0833C4.98276 19.0833 0.916016 15.0165 0.916016 9.99996Z" fill="#999999"/>
  <path fill-rule="evenodd" clip-rule="evenodd" d="M9.7168 5.8333C9.7168 4.75633 10.5898 3.8833 11.6668 3.8833C12.7438 3.8833 13.6168 4.75633 13.6168 5.8333C13.6168 6.91028 12.7438 7.7833 11.6668 7.7833C10.5898 7.7833 9.7168 6.91028 9.7168 5.8333ZM4.7168 7.50005C4.7168 6.42307 5.58982 5.55005 6.6668 5.55005C7.74377 5.55005 8.6168 6.42307 8.6168 7.50005C8.6168 8.57702 7.74377 9.45005 6.6668 9.45005C5.58982 9.45005 4.7168 8.57702 4.7168 7.50005ZM7.08379 10.9667C6.00681 10.9667 5.13379 11.8397 5.13379 12.9167C5.13379 13.9936 6.00681 14.8667 7.08379 14.8667C8.16076 14.8667 9.03379 13.9936 9.03379 12.9167C9.03379 11.8397 8.16076 10.9667 7.08379 10.9667Z" fill="#333333"/>
  </svg>
